<svg width="48" height="48" viewBox="0 0 48 48" fill="none" xmlns="http://www.w3.org/2000/svg">
<g clip-path="url(#clip0_191_1620)">
<path d="M35.4915 40H17.4576L2 11.661H20.0339L35.4915 40Z" fill="#4398D1"/>
<path d="M31.6269 14.8815C34.1168 14.8815 36.1354 12.8629 36.1354 10.373C36.1354 7.88301 34.1168 5.8645 31.6269 5.8645C29.1369 5.8645 27.1184 7.88301 27.1184 10.373C27.1184 12.8629 29.1369 14.8815 31.6269 14.8815Z" fill="#FDB62F"/>
<path d="M30.9827 2H32.2708V3.9322H30.9827V2Z" fill="#FDB62F"/>
<path d="M30.9827 16.8136H32.2708V18.7458H30.9827V16.8136Z" fill="#FDB62F"/>
<path d="M23.2539 9.72876H25.1861V11.0169H23.2539V9.72876Z" fill="#FDB62F"/>
<path d="M38.0674 9.72876H39.9996V11.0169H38.0674V9.72876Z" fill="#FDB62F"/>
<path d="M25.2505 4.90782L26.1614 3.99695L27.5277 5.36326L26.6168 6.27413L25.2505 4.90782Z" fill="#FDB62F"/>
<path d="M35.7261 15.3804L36.6369 14.4695L38.0033 15.8358L37.0924 16.7467L35.7261 15.3804Z" fill="#FDB62F"/>
<path d="M25.251 15.838L26.6173 14.4717L27.5282 15.3826L26.1618 16.7489L25.251 15.838Z" fill="#FDB62F"/>
<path d="M35.7256 5.36289L37.0919 3.99658L38.0028 4.90745L36.6365 6.27376L35.7256 5.36289Z" fill="#FDB62F"/>
<path d="M28.9509 13.9952C30.9496 15.4754 33.7698 15.0552 35.25 13.0565C36.4116 11.4879 36.4306 9.34954 35.2969 7.76062C33.7816 10.3723 31.589 12.5263 28.9509 13.9952Z" fill="#F7A72E"/>
<path d="M2 11.661V16.1695L14.8814 40H17.4576L2 11.661Z" fill="#DEDEDE"/>
<path d="M13.9722 33.6096L17.4579 40.0001H35.4918L25.6414 21.941L13.9722 33.6096Z" fill="#3E8CC7"/>
<path d="M26.2505 32.2712L23.0823 26.4746H28.1138L27.4117 25.1864H22.3783L19.2102 19.3898H24.2494L23.5473 18.1017H18.5062L14.9864 11.661H13.5179L17.0377 18.1017H12.7096L9.18977 11.661H7.72129L11.2411 18.1017H5.51343L6.21546 19.3898H11.9477L15.1158 25.1864H9.38363L10.0857 26.4746H15.823L18.9912 32.2712H13.2422L13.9443 33.5593H19.6894L23.2092 40H24.6777L21.1578 33.5593H25.486L29.0058 40H30.4743L26.9544 33.5593H31.9782L31.2761 32.2712H26.2505ZM13.4136 19.3898H17.7417L20.9099 25.1864H16.5817L13.4136 19.3898ZM20.4539 32.2712L17.2857 26.4746H21.6138L24.782 32.2712H20.4539Z" fill="#3570AB"/>
</g>
<defs>
<clipPath id="clip0_191_1620">
<rect width="38" height="38" fill="white" transform="translate(2 2)"/>
</clipPath>
</defs>
</svg>
